<?xml version="1.0" encoding="utf-8"?>
<!-- Generator: Adobe Illustrator 22.1.0, SVG Export Plug-In . SVG Version: 6.00 Build 0)  -->
<svg version="1.1" id="Layer_2" xmlns="http://www.w3.org/2000/svg" xmlns:xlink="http://www.w3.org/1999/xlink" x="0px" y="0px"
	 viewBox="0 0 1159.722 691.667" enable-background="new 0 0 1159.722 691.667" xml:space="preserve">
<path fill="#0072A7" d="M1134.752,219.814c-0.049-0.973-62.477,2.283-169.815,3.993c-53.664,0.855-64.4,1.277-130.66,0.971
	c-109.056-0.504-191.18-4.149-313,13c-14.489,2.04-143.733,19.808-143,36c0.516,11.391,75.969,17.915,100,20
	c24.174,2.097,44.48,2.591,58.972,2.621c17.459,1.814,26.189-0.735,30.694-2.954c3.014-1.485,6.937-3.552,6.937-3.552
	c3.458-1.793,7.776-4.069,13.397-7.115c16.323-8.846,24.176-1.917,61-2.667c31.724-0.646,42.097-7.024,58,1.667
	c7.656,4.184,12.793,9.784,16,14c2.612,0.335,7.09,0.787,12.667,0.667c12.663-0.273,19.212-3.242,24.083,0.833
	c0.165,0.138,3.619,3.1,2.89,6.012c-0.607,2.426-3.97,4.236-8.39,4.238c-7.113,1.438-17.85,3.366-31,4.75
	c-35.669,3.755-59.161-1.508-86.987-1.11c-18.722,0.268-46.949,0.743-81.263,1.61c-99.06,2.502-148.795,1.912-204,9
	c-82.028,10.532-149.886,30.153-200,48c-19.783,9.288-66.815,33.932-66,63c0.941,33.57,65.554,67.785,165,78
	c114.335,14.655,228.67,29.31,343.005,43.964c397.408,54.456,483.696,64.094,483.996,62.036c0.15-1.029-21.145-5.328-482-81
	c-109.294-17.946-218.628-35.613-328-53c-79.328-18.14-132.09-44.586-131-69c0.969-21.696,44.272-37.411,70-45
	c72.784-17.617,132.641-25.792,173-30c43.5-4.536,80.703-5.442,135.988-7.47c86.161-3.159,128.421-1.939,205.92-9.26
	c24.172-2.283,43.901-4.654,56.592-6.271c0.165-0.956,1.976-12.591-6.5-20.5c-5.459-5.093-11.984-5.656-14-5.75
	c-4.488,0.1-11.323-0.228-19-2.75c-13.897-4.566-19.682-12.753-27-18c-14.061-10.083-21.332-1.619-62.833-2.667
	c-36.275-0.915-50.557-7.563-69.167,3.667c-7.585,4.577-4.652,5.344-11.833,9.5c-21.814,12.625-46.455,4.137-86.167,4
	c-4.392-0.015-19.733-0.066-37.831-6.337c-7.727-2.678-12.64-4.371-12.669-6.663c-0.024-1.841,2.921-8.853,90.5-19.5
	c37.264-4.53,88.905-9.604,152-12c30.349,1.288,78.449,1.716,156.688,0.007c0.013,0,0.299-0.007,0.312-0.007
	C1002.399,234.986,1134.824,221.232,1134.752,219.814z"/>
<path fill="#0072A7" d="M6.8,225.278c54.234-9.164,128.397-27.69,209.478-67.5c70.29-34.512,124.179-74.414,162.5-107.5
	c5.748-3.661,13.442-7.784,23-11c13.132-4.419,24.781-5.445,33-5.5c10.277,3.117,25.441,7.575,44,12.5
	c23.86,6.331,35.964,9.497,44.5,9.5c5.846,0.002,12.175-0.659,59.5-21c14.269-6.133,36.41-14.875,63-23c5.662-1.73,14.37-3.631,25-3
	c15.643,0.928,27.073,7.071,31.5,9.5c47.198,25.903,136.323,80.839,172.328,102.442l0.003,0.002
	c36.048,16.169,90.031,37.425,158.169,53.057c74.132,17.007,120.134,17.057,120,18.5c-0.415,4.466-138.351,12.906-274.5-44.5
	c-41.752-17.604-66.878-34.374-66.878-34.374c-27.213-16.429-37.912-26.148-77.122-49.126c-13.337-7.816-31.395-18-57-25
	c-9.571-2.617-17.73-4.114-23.5-5c-12.393,3.326-24.785,6.651-37.178,9.977c-2.93,0.786-13.697,4.276-27.822,9.523
	c-10.38,3.856-23.173,8.952-37.644,15.526c-12.327,4.171-21.995,4.281-28.474,3.645c-7.919-0.777-10.879-2.151-28.479-6.473
	c-4.975-1.221-11.141-2.491-19.402-3.698c-15.881-2.32-25.944-3.79-38.5-3c-42.238,2.659-76.361,28.635-104.057,49.663
	c-0.193,0.147-0.341,0.26-0.443,0.337c-31.6,24.115-80.91,54.75-157.5,81c-21.087,6.707-38.881,11.852-52,15.5
	c-47.757,13.28-66.02,15.748-72,16.5C32.069,225.067,16.929,225.385,6.8,225.278z"/>
<g>
	<path fill="#0072A7" stroke="#0072A7" stroke-miterlimit="10" d="M426.802,494.862c-6.969-1.365-8.66-1.57-16.29-2.648
		l-0.483-0.696c2.534-12.855,4.951-25.632,7.288-38.521c1.712-9.446,2.693-14.859,4.948-30.103l0.599-0.5
		c6.772,1.328,8.838,1.703,16.389,2.665l0.483,0.697c-1.883,8.705-3.551,17.346-5.121,26.005
		c-2.587,14.27-5.057,28.458-7.116,42.617L426.802,494.862z"/>
	<path fill="#0072A7" stroke="#0072A7" stroke-miterlimit="10" d="M460.652,469.773l-3.221,17.912l4.035,0.725
		c10.763,1.733,13.223,2.175,17.606,2.659l0.484,0.696c-1.314,5.047-1.625,6.211-2.777,11.49l-0.697,0.482l-15.746-2.831
		c-12.302-2.212-14.959-2.69-21.212-3.511l-0.386-0.679c1.595-7.739,2.685-13.232,4.968-25.929
		c2.531-14.073,5.707-32.298,6.993-42.836l0.598-0.501c12.284,2.311,25.373,4.664,36.941,6.44l0.404,0.58
		c-1.244,4.654-1.473,5.933-2.556,10.818l-0.697,0.483l-1.771-0.318c-2.952-0.53-5.985-1.178-8.938-1.709l-5.708-1.025l-3.641-0.655
		c-1.257,6.986-1.575,8.759-2.84,16.354l4.232,0.76c5.118,0.921,8.186,1.372,14.914,2.378l0.484,0.697
		c-1.296,4.948-1.42,5.638-2.484,10.424l-0.697,0.484c-4.706-0.948-9.43-1.798-14.154-2.647L460.652,469.773z"/>
	<path fill="#0072A7" stroke="#0072A7" stroke-miterlimit="10" d="M507.744,478.203l-3.191,17.919l4.037,0.719
		c10.767,1.714,13.228,2.152,17.612,2.628l0.486,0.695c-1.306,5.05-1.614,6.214-2.758,11.496l-0.696,0.486l-15.753-2.806
		c-12.307-2.191-14.965-2.665-21.221-3.476l-0.387-0.678c1.582-7.742,2.662-13.238,4.924-25.939
		c2.506-14.078,5.651-32.311,6.919-42.853l0.598-0.503c12.289,2.29,25.384,4.622,36.956,6.377l0.404,0.58
		c-1.235,4.656-1.463,5.937-2.536,10.824l-0.696,0.485l-1.772-0.315c-2.953-0.526-5.988-1.168-8.941-1.695l-5.711-1.016
		l-3.643-0.648c-1.245,6.991-1.561,8.763-2.813,16.36l4.234,0.754c5.12,0.911,8.189,1.357,14.919,2.353l0.485,0.695
		c-1.288,4.951-1.41,5.641-2.466,10.43l-0.696,0.485c-4.708-0.938-9.435-1.781-14.16-2.623L507.744,478.203z"/>
	<path fill="#0072A7" stroke="#0072A7" stroke-miterlimit="10" d="M554.796,486.543l-3.155,17.923l4.038,0.71
		c10.769,1.693,13.231,2.127,17.616,2.594l0.487,0.695c-1.296,5.051-1.603,6.216-2.735,11.498l-0.694,0.488l-15.757-2.773
		c-12.311-2.167-14.97-2.636-21.226-3.431l-0.389-0.678c1.566-7.745,2.636-13.243,4.871-25.947
		c2.479-14.084,5.587-32.319,6.833-42.862l0.597-0.505c12.292,2.266,25.391,4.57,36.965,6.303l0.405,0.579
		c-1.226,4.658-1.45,5.938-2.514,10.828l-0.695,0.487l-1.773-0.313c-2.954-0.52-5.989-1.154-8.944-1.675l-5.712-1.006l-3.644-0.641
		c-1.23,6.992-1.542,8.765-2.778,16.365l4.234,0.745c5.121,0.901,8.191,1.34,14.923,2.322l0.486,0.695
		c-1.277,4.952-1.398,5.643-2.445,10.433l-0.694,0.487c-4.71-0.932-9.437-1.763-14.164-2.595L554.796,486.543z"/>
	<path fill="#0072A7" stroke="#0072A7" stroke-miterlimit="10" d="M619.46,528.968c-6.98-1.307-8.673-1.497-16.312-2.512
		l-0.489-0.692c2.425-12.875,4.735-25.671,6.964-38.58c1.633-9.461,2.567-14.882,4.695-30.143l0.595-0.507
		c6.782,1.272,8.852,1.63,16.41,2.528l0.488,0.693c-1.81,8.721-3.404,17.375-4.901,26.048c-2.467,14.289-4.817,28.497-6.757,42.675
		L619.46,528.968z"/>
	<path fill="#0072A7" stroke="#0072A7" stroke-miterlimit="10" d="M656.098,535.217c-7.574-1.388-9.349-1.688-16.103-2.53
		l-0.393-0.676c1.685-8.132,1.784-8.724,4.262-23.314c0.954-5.62,1.892-11.141,2.943-16.743c1.755-9.743,1.939-10.828,3.026-17.236
		c-9.283-1.475-11.452-1.843-14.542-2.164l-0.393-0.675c1.166-5.076,1.267-5.668,2.269-10.975l0.692-0.491l21.688,3.683
		c11.354,1.825,16.58,2.712,23.12,3.618l0.393,0.676c-1.248,4.961-1.581,6.324-2.581,11.023l-0.692,0.49
		c-0.887-0.15-5.29-1.1-6.374-1.284c-2.448-0.518-4.913-0.936-7.377-1.354c-0.869,4.519-1.338,7.279-2.225,12.505
		c-2.544,14.984-4.972,29.888-7.022,44.957L656.098,535.217z"/>
	<path fill="#0072A7" stroke="#0072A7" stroke-miterlimit="10" d="M719.051,489.23c-2.125-2.479-4.776-5.449-10.302-6.36
		c-5.032-0.831-8.776,1.593-9.476,5.835c-0.521,3.158,0.699,5.589,3.466,8.479c0.841,1.049,5.582,5.479,6.636,6.465
		c5.5,5.367,9.784,10.735,8.157,20.603c-1.091,6.61-4.289,11.252-7.572,13.953c-6.091,4.975-13.308,5.103-20.018,3.996
		c-3.848-0.635-9.571-2.187-14.278-5.599l-0.43-1.085c0.44-2.056,0.995-4.193,1.453-6.348c0.407-1.859,0.815-3.717,1.124-5.591
		l0.839-0.167c2.834,3.711,6.898,6.104,11.438,6.854c7.399,1.221,10.235-3.684,10.788-7.038c0.717-4.342-1.656-7.166-5.854-11.202
		l-3.672-3.545c-4.528-4.497-10.193-10.094-8.403-20.947c1.172-7.104,4.633-11.498,7.95-13.789
		c5.386-3.774,11.765-3.735,17.29-2.825c5.032,0.831,10.016,2.564,14.181,5.583l0.264,0.854c-0.539,2.04-1.077,4.078-1.519,6.135
		l-1.224,5.574L719.051,489.23z"/>
	<path fill="#0072A7" stroke="#0072A7" stroke-miterlimit="10" d="M769.831,537.86c-1.323,5.866-1.715,7.729-2.68,13.245
		l-0.503,0.63c-5.114,1.63-11.483,0.936-14.645,0.44c-5.533-0.864-15.403-3.118-21.462-12.265
		c-3.423-5.293-6.273-14.241-4.201-27.479c0.881-5.632,2.34-11.071,4.854-16.143c9.896-19.91,27.482-17.158,32.324-16.4
		c4.939,0.772,9.983,2.17,14.09,5.038l0.386,0.77c-0.553,2.241-1.122,4.582-1.676,6.824c-0.423,2.059-0.847,4.117-1.285,6.275
		l-0.738,0.188c-1.447-1.745-4.274-5.021-10.302-5.965c-12.646-1.979-18.447,9.866-20.225,21.229
		c-1.052,6.718-2.105,23.153,13.108,25.533c6.521,1.021,9.955-0.871,12.505-2.294L769.831,537.86z"/>
	<path fill="#0072A7" stroke="#0072A7" stroke-miterlimit="10" d="M820.994,548.521c10.384,1.571,12.868,1.87,18.757,2.414
		l0.497,0.688c-1.255,5.267-1.561,6.535-2.564,12.146l-0.886,0.465c-3.835-0.719-8.394-1.353-12.539-2.02l-12.638-2.036
		c-5.348-0.76-10.679-1.619-16.125-2.395l-0.369-1.479c0.704-0.597,1.308-1.207,1.913-1.818c4.285-3.97,8.324-8.282,12.526-12.366
		c2.321-2.463,4.725-4.811,7.047-7.272c7.537-7.801,9.657-10.903,10.404-15.543c0.892-5.529-1.667-10.398-7.591-11.354
		c-5.628-0.906-10.414,1.767-13.414,3.41l-0.695-0.72c1.121-5.694,1.36-7.175,2.285-12.294l0.638-0.809
		c5.761-1.807,11.789-2.76,17.714-1.806c11.058,1.781,19.224,10.188,16.966,24.207c-1.463,9.084-6.124,13.498-13.894,20.857
		c-1.425,1.289-2.765,2.695-4.188,3.984L820.994,548.521z"/>
	<path fill="#0072A7" stroke="#0072A7" stroke-miterlimit="10" d="M863.501,569.836c-3.849-0.632-10.841-2.49-14.623-10.308
		c-3.47-7.259-2.557-17.749-1.162-26.236c1.897-11.545,6.336-33.01,26.762-29.654c2.961,0.487,10.51,2.031,14.541,10.192
		c3.749,7.406,2.525,18.556,1.244,26.352C888.059,553.603,883.336,573.095,863.501,569.836z M876.723,521.439
		c-0.139-2.86-0.969-6.443-4.126-6.962c-2.369-0.389-3.779,1.406-4.286,2.032c-2.853,3.787-4.621,13.936-5.447,18.968
		c-0.845,5.132-2.628,15.986-1.006,20.308c0.28,0.754,1.157,2.825,3.525,3.213c3.354,0.552,5.139-2.905,6.07-5.489
		c1.421-3.718,2.74-9.886,3.565-14.919C875.782,533.952,876.864,525.515,876.723,521.439z"/>
	<path fill="#0072A7" stroke="#0072A7" stroke-miterlimit="10" d="M914.62,563.867c10.377,1.607,12.859,1.916,18.746,2.48
		l0.493,0.69c-1.272,5.263-1.582,6.528-2.608,12.136l-0.887,0.462c-3.832-0.732-8.386-1.381-12.529-2.064l-12.63-2.081
		c-5.345-0.779-10.672-1.656-16.115-2.452l-0.363-1.479c0.705-0.593,1.312-1.203,1.92-1.813c4.3-3.952,8.353-8.251,12.569-12.318
		c2.33-2.453,4.742-4.794,7.072-7.247c7.564-7.772,9.695-10.868,10.46-15.505c0.911-5.525-1.629-10.403-7.55-11.379
		c-5.624-0.927-10.42,1.729-13.425,3.361l-0.691-0.721c1.14-5.69,1.384-7.171,2.327-12.285l0.641-0.806
		c5.767-1.787,11.798-2.719,17.718-1.743c11.051,1.821,19.188,10.257,16.879,24.267c-1.496,9.077-6.174,13.476-13.97,20.805
		c-1.427,1.285-2.771,2.685-4.2,3.97L914.62,563.867z"/>
	<path fill="#0072A7" stroke="#0072A7" stroke-miterlimit="10" d="M981.618,536.515c-2.478-2.833-5.246-4.499-8.898-5.093
		c-11.745-1.91-14.359,10.431-14.859,12.883c1.542-0.764,5.331-2.883,11.155-1.936c10.068,1.637,15.547,10.936,13.51,23.472
		c-2.182,13.425-11.126,21.696-24.944,19.45c-2.665-0.433-5.265-1.262-7.59-2.551c-9.359-5.371-11.721-16.394-9.25-31.593
		c0.721-4.443,1.724-8.738,3.317-12.936c2.831-7.443,6.611-11.996,9.954-14.491c5.426-4.083,11.883-5.161,19.187-3.974
		c6.317,1.027,9.63,3.084,11.377,4.18l0.563,0.901c-1.229,5.068-1.326,5.661-2.536,11.239L981.618,536.515z M954.6,563.734
		c-0.149,3.42,0.139,9.748,5.073,10.551c0.987,0.161,2.023,0.025,2.795-0.356c3.807-1.61,4.87-6.909,5.192-8.883
		c1.154-7.105-1.374-10.253-4.631-10.782c-3.652-0.593-6.486,1.885-7.535,2.727C955.124,559.26,954.657,561.514,954.6,563.734z"/>
</g>
<g>
	<path fill="#0072A7" stroke="#0072A7" stroke-miterlimit="10" d="M429.083,400.129c0.63,0.829,1.083,1.563,2.143,2.534
		c2.107,2.008,4.867,3.288,7.763,3.813c6.486,1.175,11.337-1.914,12.284-7.141c0.891-4.911-2.196-7.616-6.542-10.551l-4.661-2.99
		c-3.625-2.606-8.458-6.084-7.237-12.822c0.651-3.589,2.979-6.744,6.314-8.286c3.324-1.479,7.056-1.257,10.016-0.722
		c5.542,1.005,8.52,3.234,9.997,4.413l0.287,0.572l-0.938,3.017l-0.687,0.201c-1.901-1.711-4.353-3.976-9.39-4.889
		c-8.815-1.597-11.091,3.779-11.524,6.171c-0.867,4.786,2.78,7.269,6.869,9.83l4.129,2.698c3.458,2.449,8.875,6.291,7.495,13.91
		c-1.152,6.361-7.016,11.802-16.965,9.998c-2.582-0.466-7.631-2.032-10.815-5.275l-0.138-0.675l0.949-3.796L429.083,400.129z"/>
	<path fill="#0072A7" stroke="#0072A7" stroke-miterlimit="10" d="M489.555,401.029l-23.87-4.295
		c-0.299,2.026-0.633,4.242,0.139,7.178c1.706,6.419,6.763,8.304,9.534,8.804c5.794,1.041,9.58-1.203,11.329-2.254l0.447,0.405
		l-0.897,3.545l-0.428,0.573c-2.917,1.036-5.972,2.111-11.388,1.137c-10.266-1.848-14.505-10.087-12.794-19.597
		c1.779-9.889,8.528-15.957,17.849-14.28c3.905,0.703,7.428,2.442,9.594,6.668c2.165,4.226,1.446,8.584,0.931,11.806
		L489.555,401.029z M486.354,397.138c0.203-1.851,0.502-3.877-0.538-6.404c-1.869-4.433-5.447-5.142-7.021-5.426
		c-2.897-0.521-5.924,0.04-8.21,1.905c-2.595,2.133-3.545,4.888-4.069,6.354L486.354,397.138z"/>
	<path fill="#0072A7" stroke="#0072A7" stroke-miterlimit="10" d="M498.744,386.686l3.881,0.106l0.374,0.457l-0.592,2.95
		c2.023-1.133,5.263-2.896,10.24-2.006c8.63,1.542,12.843,9.251,11.256,18.133c-0.597,3.339-2.307,7.454-5.549,10.319
		c-3.573,3.263-8.415,5.257-17.234,3.682c-1.26-0.225-2.32-0.479-3.872-0.887c-1.193,6.678-1.337,8.212-2.148,14.567l-0.445,0.312
		l-3.843-0.687l-0.311-0.446c1.432-7.284,2.8-14.581,4.106-21.889c2.33-13.039,2.921-17.809,3.754-24.291L498.744,386.686z
		 M497.791,416.028c1.479,0.459,2.349,0.68,3.483,0.882c3.654,0.654,7.472,0.751,10.878-0.851c1.703-0.801,6.142-3.453,7.358-10.257
		c0.934-5.229-0.222-12.586-8.159-14.004c-2.016-0.36-4.122-0.216-6.192,0.453c-1.583,0.498-2.326,1.016-3.44,1.792L497.791,416.028
		z"/>
	<path fill="#0072A7" stroke="#0072A7" stroke-miterlimit="10" d="M537.747,396.695l-2.989,16.824
		c-0.335,1.89-0.57,3.213-0.765,4.674c-0.39,2.921-0.073,4.796,3.141,5.367c1.197,0.213,2.072,0.043,3.021-0.178l0.448,0.404
		l-0.692,2.802l-0.542,0.489c-1.306,0.028-2.146,0.009-3.406-0.215c-7.436-1.32-6.528-6.426-5.6-11.655l0.645-3.265l2.833-15.941
		l-5.126-0.78l-0.237-0.498l0.585-2.561l0.445-0.312l4.955,1.012l1.125-7.795l0.508-0.3l3.812-0.233l0.311,0.446l-1.849,8.575
		l7.28,1.098l0.236,0.497l-0.607,2.688l-0.497,0.237L537.747,396.695z"/>
	<path fill="#0072A7" stroke="#0072A7" stroke-miterlimit="10" d="M573.534,415.962l-23.885-4.219
		c-0.293,2.027-0.62,4.244,0.162,7.176c1.727,6.414,6.79,8.284,9.563,8.773c5.798,1.024,9.576-1.232,11.322-2.289l0.448,0.404
		l-0.887,3.548l-0.427,0.574c-2.913,1.045-5.965,2.131-11.385,1.174c-10.272-1.814-14.538-10.043-12.857-19.558
		c1.748-9.896,8.478-15.985,17.805-14.338c3.907,0.691,7.437,2.419,9.616,6.638c2.179,4.22,1.474,8.579,0.969,11.805
		L573.534,415.962z M570.321,412.08c0.196-1.85,0.49-3.877-0.559-6.402c-1.883-4.428-5.464-5.124-7.039-5.402
		c-2.899-0.513-5.925,0.058-8.205,1.93c-2.588,2.143-3.53,4.9-4.05,6.369L570.321,412.08z"/>
	<path fill="#0072A7" stroke="#0072A7" stroke-miterlimit="10" d="M581.681,434.486l-3.679-0.513l-0.313-0.443
		c0.591-3.016,0.951-4.707,1.413-7.354c0.561-3.216,1.047-6.38,1.534-9.543c1.256-7.577,1.457-9.101,1.887-14.548l0.455-0.375
		l3.956,0.04l0.301,0.507l-0.752,3.572c3.696-1.824,7.642-3.215,11.614-2.523c5.548,0.968,6.846,4.702,7.412,6.296
		c2.43-1.266,7.089-3.767,12.826-2.766c3.468,0.604,4.972,2.036,5.422,2.439c3.124,2.948,3.149,6.525,2.007,13.084l-0.309,1.765
		c-1.306,7.113-1.594,9.143-2.664,17.142l-0.444,0.312l-3.49-0.479l-0.375-0.455c1.212-5.831,1.409-6.965,3.224-17.369
		c0.945-5.422,1.155-8.114,0.002-10.069c-0.915-1.459-2.79-2.631-5.06-3.026c-4.35-0.758-8.057,1.129-10.699,2.488
		c-0.102,2.451-0.138,3.028-0.688,6.182l-0.212,1.588c-1.476,8.836-1.765,10.866-2.56,17.288l-0.444,0.313l-3.616-0.501
		l-0.301-0.507c0.47-2.322,0.852-4.14,1.357-7.039c0.648-3.72,1.957-11.224,2.257-14.809c0.094-1.283,0.312-3.649-0.842-5.604
		c-0.706-1.163-2.232-2.468-4.565-2.874c-4.413-0.771-8.439,1.451-10.372,2.479c-1.928,11.422-2.337,14.146-3.775,25.004
		L581.681,434.486z"/>
	<path fill="#0072A7" stroke="#0072A7" stroke-miterlimit="10" d="M643.667,394.005c-1.543,7.853-1.931,9.734-3.537,19.848
		c1.065-0.531,1.761-0.803,3.184-1.143c3.296-0.668,5.978-0.402,7.239-0.187c2.712,0.467,5.588,1.868,7.869,4.468
		c2.972,3.497,3.978,8.604,3.155,13.397c-0.921,5.362-4.141,9.745-7.845,12.031c-5.171,3.269-10.438,2.559-14.571,2.044
		l-7.716-1.194l-0.313-0.443c0.939-5.098,1.827-10.271,2.704-15.379c0.909-5.299,1.744-10.545,2.58-15.79
		c1.771-11.45,1.987-12.712,2.379-17.645l0.454-0.376l4.093-0.012L643.667,394.005z M638.853,440.97
		c2.145,0.367,7.118,0.896,10.893-0.663c4.47-1.831,6.984-6.269,7.71-10.494c1.343-7.821-3.02-13.05-8.57-14.003
		c-1.324-0.228-3.449-0.333-6.03,0.328c-1.569,0.445-2.361,0.894-3.363,1.436l-3.908,22.771c1.072,0.185,2.07,0.42,3.08,0.595
		L638.853,440.97z"/>
	<path fill="#0072A7" stroke="#0072A7" stroke-miterlimit="10" d="M694.253,436.759l-23.915-4.04
		c-0.278,2.03-0.588,4.249,0.216,7.176c1.774,6.4,6.853,8.231,9.629,8.7c5.806,0.98,9.566-1.305,11.304-2.375l0.452,0.401
		l-0.86,3.555l-0.422,0.577c-2.906,1.066-5.948,2.176-11.375,1.26c-10.286-1.737-14.612-9.932-13.004-19.461
		c1.674-9.907,8.357-16.047,17.695-14.47c3.913,0.661,7.454,2.363,9.665,6.565c2.211,4.203,1.539,8.567,1.059,11.796
		L694.253,436.759z M691.011,432.901c0.183-1.852,0.461-3.881-0.606-6.397c-1.916-4.413-5.502-5.084-7.08-5.35
		c-2.902-0.49-5.923,0.104-8.189,1.992c-2.571,2.161-3.492,4.926-4.001,6.397L691.011,432.901z"/>
	<path fill="#0072A7" stroke="#0072A7" stroke-miterlimit="10" d="M716.942,428.254l-0.569,0.294
		c-0.8-0.651-1.441-1.082-2.516-1.261c-1.642-0.273-3.083,0.202-4.188,0.992c-2.503,1.789-3.428,5.01-4.444,11.134
		c-0.776,4.674-1.562,10.967-2.181,15.471l-0.441,0.315l-3.799-0.565l-0.316-0.441c0.829-4.209,1.249-6.348,1.973-10.703
		c1.133-6.818,2.37-14.271,2.851-20.679l0.442-0.316l3.819,0.051l0.315,0.442l-0.892,4.977c0.463-0.831,0.978-1.59,1.609-2.263
		c1.335-1.4,3.702-2.759,6.291-2.33c1.01,0.169,1.789,0.558,2.736,1.104l0.368,0.517L716.942,428.254z"/>
	<path fill="#0072A7" stroke="#0072A7" stroke-miterlimit="10" d="M752.948,463.391c-1.581-0.251-2.276-0.361-3.877-0.487
		l-0.382-0.449c0.559-2.697,0.951-5.163,1.313-7.438c0.835-5.246,1.67-10.492,2.432-15.686c1.862-12.924,1.934-13.366,2.448-16.201
		c-2.841-0.063-3.493-0.037-6.428,0.079l-0.446-0.46c0.225-1.001,0.358-1.434,0.561-2.697l0.458-0.444
		c4.831,0.184,5.862,0.219,10.398,0.228l0.445,0.46c-0.974,4.9-1.329,6.724-2.145,11.843c-0.13,0.821-3.064,19.667-4.34,30.936
		L752.948,463.391z"/>
	<path fill="#0072A7" stroke="#0072A7" stroke-miterlimit="10" d="M779.276,440.217c1.417-0.364,4.312-1.085,8.107-0.502
		c8.476,1.303,13.484,7.899,12.231,16.061c-1.227,7.971-8.057,14.497-19.254,12.776c-6.009-0.924-9.348-3.639-10.56-4.602
		l-0.283-0.691c0.396-1.3,0.424-1.488,0.784-2.988l0.618-0.229c1.522,1.464,4.516,4.32,10.21,5.195
		c8.855,1.36,13.453-4.537,14.249-9.725c0.507-3.289,0.009-11.006-9.417-12.455c-5.25-0.806-9.313,0.771-11.104,1.467l-0.447-0.457
		l1.6-7.46c0.952-4.516,1.774-8.599,2.417-12.773l0.499-0.312c0.76,0.116,4.42,0.743,5.242,0.87l11.702,1.799
		c0.76,0.115,4.375,0.607,5.197,0.733l0.385,0.448c-0.375,1.173-0.467,1.354-0.725,2.608l-0.511,0.374
		c-2.711-0.481-5.431-0.899-8.078-1.37l-10.374-1.595L779.276,440.217z"/>
	<path fill="#0072A7" stroke="#0072A7" stroke-miterlimit="10" d="M815.726,443.205l-2.641,16.884
		c-0.298,1.897-0.505,3.225-0.67,4.689c-0.328,2.928,0.027,4.798,3.253,5.302c1.201,0.188,2.072,0.001,3.018-0.241l0.457,0.396
		l-0.636,2.815l-0.532,0.499c-1.303,0.056-2.146,0.053-3.41-0.145c-7.462-1.166-6.66-6.288-5.84-11.537l0.578-3.277l2.502-15.999
		l-5.142-0.675l-0.246-0.491l0.531-2.572l0.438-0.32l4.976,0.907l0.963-7.817l0.503-0.311l3.806-0.311l0.321,0.438l-1.672,8.613
		l7.302,0.948l0.246,0.491l-0.551,2.699l-0.493,0.247L815.726,443.205z"/>
	<path fill="#0072A7" stroke="#0072A7" stroke-miterlimit="10" d="M827.456,474.979l-3.676-0.517l-0.319-0.439l3.479-22.001
		c0.729-4.614,1.45-9.166,2.116-13.791c0.997-6.712,1.21-8.881,1.502-13.177l0.438-0.319l4.082-0.002l0.319,0.438
		c-1.542,8.115-1.952,10.707-3.469,20.707c2.799-1.309,6.772-3.077,12.083-2.237c2.656,0.42,4.199,1.313,5.62,2.573
		c3.224,2.972,2.797,6.08,2.007,12.307l-0.894,6.467c-0.987,6.649-1.146,7.66-1.733,13.011l-0.376,0.33l-3.813-0.475l-0.246-0.492
		c0.66-4.172,1.382-8.334,2.052-12.571c0.73-4.614,1.121-7.08,1.345-9.313c0.155-1.4,0.399-3.761-0.794-5.634
		c-0.822-1.36-2.685-2.692-5.088-3.073c-4.489-0.709-8.668,1.546-10.731,2.71c-1.959,12.392-2.282,15.257-3.463,25.179
		L827.456,474.979z"/>
	<path fill="#0072A7" stroke="#0072A7" stroke-miterlimit="10" d="M873.584,462.331c-0.451,1.613-0.596,2.108-0.902,3.227
		l-0.43,0.256c-1.759-0.345-2.698-0.559-9.46-1.634c-2.528-0.4-3.098-0.491-5.52-0.746l-0.352-0.64
		c0.453-1.224,0.567-1.53,0.852-2.911l0.513-0.372c3.192,0.702,6.353,1.205,9.577,1.718c2.718,0.431,3.866,0.548,5.339,0.653
		L873.584,462.331z"/>
	<path fill="#0072A7" stroke="#0072A7" stroke-miterlimit="10" d="M893.797,485.518c-1.579-0.252-2.274-0.362-3.875-0.489
		l-0.382-0.45c0.561-2.697,0.954-5.162,1.316-7.438c0.838-5.246,1.676-10.492,2.439-15.686c1.869-12.924,1.94-13.367,2.456-16.201
		c-2.841-0.065-3.493-0.039-6.428,0.075l-0.445-0.459c0.225-1.001,0.358-1.434,0.56-2.698l0.459-0.445
		c4.833,0.188,5.863,0.224,10.4,0.235l0.444,0.459c-0.977,4.898-1.332,6.724-2.15,11.843c-0.131,0.821-3.073,19.667-4.354,30.936
		L893.797,485.518z"/>
	<path fill="#0072A7" stroke="#0072A7" stroke-miterlimit="10" d="M934.427,468.092c2.184,0.932,4.15,2.411,5.375,4.487
		c1.181,1.938,1.769,4.754,1.273,7.851c-1.059,6.635-6.784,12.46-17.021,10.825c-8.911-1.423-13.823-7.586-12.612-15.169
		c0.807-5.056,4.328-10.066,12.01-9.877c-1.286-0.465-3.194-1.093-4.806-2.776c-1.621-1.619-2.996-4.366-2.391-8.158
		c1.059-6.634,6.96-9.904,15.049-8.613c7.582,1.211,12.275,5.913,11.195,12.675c-0.615,3.854-3.066,7.028-7.353,7.898
		c-0.672,0.152-1.397,0.231-2.06,0.318L934.427,468.092z M915.696,476.635c-0.919,5.751,2.543,10.451,8.988,11.48
		c7.457,1.19,11.772-3.11,12.335-8.658c0.595-5.349-2.465-9.726-9.228-10.805c-1.705-0.272-3.136-0.242-4.197-0.087
		C921.124,469.013,916.634,470.758,915.696,476.635z M930.82,449.695c-5.182-0.827-9.597,1.254-10.435,6.499
		c-0.777,4.865,2.593,8.516,7.712,9.332c5.562,0.889,9.266-2.02,10.099-6.424C939.16,453.878,935.874,450.501,930.82,449.695z"/>
	<path fill="#0072A7" stroke="#0072A7" stroke-miterlimit="10" d="M956.728,465.619l-2.688,16.877
		c-0.303,1.896-0.515,3.224-0.684,4.688c-0.337,2.928,0.014,4.798,3.237,5.312c1.2,0.192,2.072,0.007,3.018-0.23l0.456,0.396
		l-0.644,2.814l-0.532,0.497c-1.306,0.052-2.146,0.048-3.411-0.152c-7.459-1.19-6.643-6.31-5.806-11.556l0.586-3.277l2.55-15.992
		l-5.14-0.688l-0.246-0.492l0.54-2.571l0.439-0.319l4.974,0.921l0.985-7.814l0.503-0.309l3.808-0.3l0.318,0.439l-1.696,8.608
		l7.299,0.97l0.245,0.494l-0.559,2.697l-0.493,0.244L956.728,465.619z"/>
	<path fill="#0072A7" stroke="#0072A7" stroke-miterlimit="10" d="M968.392,497.422l-3.676-0.52l-0.319-0.44l3.5-21.996
		c0.735-4.613,1.459-9.164,2.13-13.788c1.004-6.71,1.22-8.88,1.514-13.174l0.439-0.32l4.083,0.002l0.318,0.44
		c-1.55,8.113-1.962,10.704-3.488,20.701c2.8-1.305,6.775-3.069,12.084-2.225c2.655,0.423,4.197,1.316,5.617,2.578
		c3.22,2.976,2.79,6.083,1.994,12.308l-0.9,6.467c-0.991,6.646-1.153,7.658-1.745,13.008l-0.377,0.329l-3.812-0.477l-0.246-0.493
		c0.664-4.172,1.391-8.333,2.065-12.568c0.734-4.614,1.126-7.079,1.352-9.312c0.158-1.4,0.403-3.76-0.788-5.634
		c-0.82-1.361-2.682-2.695-5.085-3.078c-4.487-0.713-8.668,1.538-10.732,2.699c-1.972,12.389-2.297,15.254-3.488,25.174
		L968.392,497.422z"/>
</g>
<g>
	<path fill="#0072A7" stroke="#0072A7" stroke-miterlimit="10" d="M463.833,567.544l-2.127,16.522
		c-1.646,11.859-2.074,15.072-3.085,23.569l-0.619,0.446c-5.508-0.892-6.93-1.121-11.593-1.603l-0.446-0.619
		c0.966-5.404,1.816-10.099,2.751-15.874c1.366-8.439,3.848-24.904,4.68-30.604c0.299-2.413,1.245-8.824,2.058-15.53l0.619-0.447
		c6.574,1.064,7.641,1.236,13.813,1.962l0.624,0.648c1.697,5.289,2.433,7.505,7.59,21.833l7.092,19.837l2.563-18.093l1.315-9.815
		c0.802-5.522,0.889-6.057,1.298-10.275l0.619-0.445c5.522,0.802,6.766,1.003,11.325,1.559l0.358,0.605
		c-2.128,13.148-4.172,25.217-4.776,28.948c-1.092,6.751-3.637,22.477-4.978,33.017l-0.619,0.447
		c-6.042-0.978-7.108-1.15-12.837-1.804l-0.624-0.648c-1.396-4.329-1.771-5.393-6.509-18.374L463.833,567.544z"/>
	<path fill="#0072A7" stroke="#0072A7" stroke-miterlimit="10" d="M521.318,614.471c-1.637,1.104-5.438,3.774-11.304,2.832
		c-6.664-1.071-11.078-7.068-9.55-16.574c2.157-13.419,14.372-14.554,25.173-14.822c0.485-3.021,1.028-6.398-5.28-7.413
		c-5.865-0.942-9.791,0.796-11.946,1.726l-0.564-0.455c0.924-4.044,1.198-5.186,1.888-8.903l0.646-0.625
		c5.525-1.482,12.29-1.032,15.578-0.504c3.466,0.558,10.399,2.219,12.772,8.435c1.397,3.78,0.741,7.867-0.608,15.125l-1.218,7.006
		c-1.288,7.448-2.014,12.528-2.417,19.573l-0.708,0.433c-5.939-1.045-7.286-1.171-12.469-1.822l-0.551-0.544L521.318,614.471z
		 M524.412,594.096c-3.818-0.067-9.84-0.033-10.997,7.164c-0.6,3.731,0.969,6.444,3.813,6.902c2.577,0.414,4.345-0.942,5.185-1.628
		L524.412,594.096z"/>
	<path fill="#0072A7" stroke="#0072A7" stroke-miterlimit="10" d="M562.911,576.024c-0.416,2.029-0.458,2.297-0.799,4.429
		c2.343-1.539,5.996-3.871,11.063-3.062c5.421,0.867,8.184,4.681,9.581,7.912c2.344,5.296,1.914,11.973,1.218,16.328
		c-1.009,6.309-4.086,19.853-17.311,22.752c-4.049,0.812-6.346,0.353-11.145-0.415c-0.948,6.502-1.961,14.544-2.351,18.127
		l-0.619,0.447c-1.763-0.373-3.526-0.746-5.215-1.015c-2.756-0.441-5.094-0.634-8.321-0.967l-0.448-0.619
		c1.403-7.067,2.629-14.162,3.751-21.184c2.259-14.132,4.533-28.35,5.534-42.591l0.529-0.463c6.63,0.148,8.375,0.063,13.981-0.225
		L562.911,576.024z M557.305,614.501c0.431,0.159,0.786,0.217,1.23,0.287l0.711,0.114c7.948,0.451,9.817-10.097,10.514-14.45
		c0.384-2.399,0.859-6.517-0.005-9.662c-0.167-0.665-0.999-3.442-3.754-3.883c-1.955-0.313-3.502,0.808-4.738,1.704
		C559.771,597.943,559.177,602.223,557.305,614.501z"/>
	<path fill="#0072A7" stroke="#0072A7" stroke-miterlimit="10" d="M625.034,590.755c4.92,6.888,3.544,16.693,2.837,21.138
		c-0.608,3.822-2.058,11.795-7.865,16.795s-12.456,4.399-15.924,3.848c-2.399-0.381-9.394-1.676-13.48-8.067
		c-4.223-6.687-2.987-15.604-2.337-19.693c0.523-3.287,2.124-12.784,8.596-17.952c5.915-4.528,12.891-3.692,15.558-3.269
		C614.55,583.894,620.937,584.999,625.034,590.755z M614.055,596.755c-0.126-0.931-0.665-3.842-3.51-4.294s-4.157,2.073-4.786,3.158
		c-1.706,3.282-2.548,7.432-3.057,10.631c-2.233,14.045,0.065,16.78,2.999,17.246c1.155,0.185,2.382-0.077,3.454-1.091
		c2.174-2.206,3.706-8.979,4.371-13.158C613.922,606.759,614.706,600.687,614.055,596.755z"/>
	<path fill="#0072A7" stroke="#0072A7" stroke-miterlimit="10" d="M644.655,637.964c-5.853-1.018-7.541-1.285-13.819-1.914
		l-0.36-0.604c1.05-5.483,2.17-11.411,4.169-24.033c1.28-8.089,2.589-16.354,3.781-24.459c1.229-8.916,1.441-11.98,1.85-16.289
		l0.529-0.464c6.11-0.034,8.3-0.053,13.994-0.336l0.448,0.617c-0.904,5.143-1.425,8.431-2.593,15.81
		c-0.465,2.933-3.542,22.946-5.312,34.694c-1.061,7.851-1.571,12.233-2.07,16.529L644.655,637.964z"/>
	<path fill="#0072A7" stroke="#0072A7" stroke-miterlimit="10" d="M667.074,641.502c-5.676-0.986-7.809-1.323-14.088-1.949
		l-0.45-0.618c1.165-5.648,2.227-11.222,3.812-21.268c2.217-14.047,2.544-19.006,2.931-23.773l0.528-0.463
		c6.363,0.092,8.006,0.078,14.351-0.288l0.449,0.618c-0.285,1.23-0.481,2.475-0.664,3.631c-0.931,5.32-1.847,10.551-2.689,15.885
		c-1.458,9.247-2.725,18.432-3.561,27.775L667.074,641.502z M674.478,585.905c-5.432-0.22-7.06-0.295-12.637-0.172l-0.449-0.618
		c0.832-4.697,0.926-5.867,1.519-10.785l0.618-0.449c6.231,0.346,7.326,0.336,12.876,0.392l0.45,0.618
		c-0.978,5.039-1.1,6.387-1.758,10.565L674.478,585.905z"/>
	<path fill="#0072A7" stroke="#0072A7" stroke-miterlimit="10" d="M691.763,632.085c-5.482,8.795-7.479,12.217-11.615,19.401
		c-0.247,0.416-0.481,0.744-0.641,1.174l-0.795,0.422c-4.014-0.539-4.548-0.624-8.666-1.089l-0.271-0.59
		c2.164-4.488,6.163-13.698,8.405-20.999l0.616-0.449c5.068,0.797,6.593,0.945,12.694,1.54L691.763,632.085z"/>
	<path fill="#0072A7" stroke="#0072A7" stroke-miterlimit="10" d="M733.034,651.85c-6.3-1.075-7.825-1.224-14.714-2.026l-0.45-0.618
		c2-11.621,3.896-23.166,5.718-34.815c1.335-8.536,2.1-13.426,3.797-27.189l0.527-0.464c6.122,1.049,7.989,1.341,14.803,2.042
		l0.45,0.616c-1.504,7.872-2.817,15.683-4.04,23.508c-2.017,12.894-3.93,25.712-5.474,38.498L733.034,651.85z"/>
	<path fill="#0072A7" stroke="#0072A7" stroke-miterlimit="10" d="M767.97,619.226c-3.897-0.698-3.986-0.712-6.119-1.044
		l-1.747,11.203c-0.463,2.388-0.962,5.589-1.336,7.989c-0.707,4.535-1.297,8.906,2.704,9.529c1.422,0.223,2.483-0.159,3.072-0.432
		l0.465,0.528c-0.877,3.87-1.063,4.479-1.804,8.646l-0.644,0.627c-2.143,0.304-4.673,0.183-7.43-0.247
		c-1.957-0.305-7.559-1.178-9.958-5.65c-1.752-3.369-1.143-7.282-0.07-13.582l0.833-5.335c0.346-2.223,2.126-13.058,2.514-15.548
		c-1.601-0.249-2.504-0.299-4.385-0.501l-0.362-0.604c0.803-3.974,0.803-3.974,1.715-8.658l0.616-0.45
		c1.677,0.353,2.12,0.421,4.002,0.624c0.249-1.602,0.388-2.49,1.602-10.861l0.542-0.554c6.091-0.508,7.863-0.778,13.269-1.574
		l0.554,0.54c-0.787,3.885-1.043,4.938-2.67,14.794c3.215,0.411,3.926,0.521,6.532,0.746l0.451,0.616
		c-0.904,4.048-0.988,4.582-1.804,8.645L767.97,619.226z"/>
	<path fill="#0072A7" stroke="#0072A7" stroke-miterlimit="10" d="M788.803,656.7c-1.629,1.114-5.416,3.806-11.286,2.896
		c-6.671-1.033-11.118-7.005-9.644-16.521c2.081-13.429,14.289-14.634,25.087-14.964c0.47-3.024,0.993-6.403-5.321-7.383
		c-5.87-0.909-9.785,0.853-11.936,1.794l-0.567-0.452c0.901-4.05,1.169-5.192,1.837-8.914l0.644-0.628
		c5.517-1.514,12.283-1.103,15.575-0.592c3.468,0.536,10.411,2.159,12.819,8.361c1.419,3.771,0.785,7.863-0.522,15.128l-1.178,7.013
		c-1.247,7.457-1.944,12.54-2.308,19.587l-0.705,0.438c-5.945-1.013-7.292-1.131-12.479-1.753l-0.554-0.54L788.803,656.7z
		 M791.782,636.306c-3.818-0.046-9.839,0.022-10.955,7.228c-0.579,3.735,1.005,6.439,3.851,6.881
		c2.579,0.399,4.34-0.968,5.175-1.658L791.782,636.306z"/>
	<path fill="#0072A7" stroke="#0072A7" stroke-miterlimit="10" d="M823.354,665.868c-5.857-0.995-7.548-1.257-13.829-1.862
		l-0.362-0.603c1.03-5.487,2.128-11.419,4.078-24.052c1.251-8.094,2.528-16.366,3.689-24.475c1.196-8.923,1.396-11.987,1.789-16.298
		l0.526-0.466c6.111-0.058,8.301-0.084,13.995-0.389l0.45,0.615c-0.885,5.146-1.394,8.437-2.533,15.819
		c-0.454,2.936-3.455,22.964-5.181,34.719c-1.03,7.855-1.526,12.242-2.008,16.539L823.354,665.868z"/>
	<path fill="#0072A7" stroke="#0072A7" stroke-miterlimit="10" d="M833.515,686.194c3.018-4.818,4.446-7.604,8.619-15.793
		c-1.841-14.671-5.531-38.64-7.839-50.285l0.527-0.465c6.506,0.909,7.766,1.012,14.149,1.538l0.63,0.643
		c0.254,4.865,0.315,6.241,1.227,16.306l1.315,13.952l5.849-13.762c2.674-6.145,2.845-6.664,5.697-13.966l0.616-0.451
		c4.968,0.854,6.213,1.046,11.057,1.518l0.274,0.589c-3.394,6.672-4.229,8.546-12.115,24.907l-6.69,13.904
		c-5.459,11.817-7.805,17.011-10.213,23.197l-0.705,0.438c-5.782-0.889-6.938-1.067-12.036-1.668L833.515,686.194z"/>
</g>
</svg>
